# xmcd
#
# Track frame offsets: 
#        150
#        28955
#        55370
#        78079
#        103012
#        135297
#        159475
#        183808
#        211709
#        234921
#
# Disc length: 3521 seconds
#
# Revision: 3
# Processed by: cddbd v1.5.2PL0 Copyright (c) Steve Scherf et al.
# Submitted via: ExactAudioCopy v0.99pb5
#
DISCID=720dbf0a
DTITLE=Manh Quynh - Nhung Tinh Khuc Tuoi Hoc Tro (NDBD 120)
DYEAR=1900
DGENRE=Ethnic (Vietnamese)
TTITLE0=Thanh Pho Buon
TTITLE1=Noi Buon Hoa Phuong
TTITLE2=Nha Anh Nha Em
TTITLE3=Nhat Xua Than Ai
TTITLE4=Hoa 10 Gio
TTITLE5=Dung Noi Xa Nhau
TTITLE6=Chuyen Chung Minh
TTITLE7=Muc Tim Mong Toi
TTITLE8=Doan Buon Dem Mua
TTITLE9=Luu But Ngay Xanh
EXTD=ID3G:   0
EXTT0=
EXTT1=
EXTT2=
EXTT3=
EXTT4=
EXTT5=
EXTT6=
EXTT7=
EXTT8=
EXTT9=
PLAYORDER=
